<svg width="120" height="120" xmlns="http://www.w3.org/2000/svg" viewBox="0 0 100 100" preserveAspectRatio="xMidYMid" class="uil-default"><path fill="none" class="bk" d="M0 0h100v100H0z"/><rect x="47.5" y="42.5" width="5" height="15" rx="5" ry="5" fill="#662e06" transform="translate(0 -20)"><animate attributeName="opacity" from="1" to="0" dur="1s" begin="-1s" repeatCount="indefinite"/></rect><rect x="47.5" y="42.5" width="5" height="15" rx="5" ry="5" fill="#662e06" transform="rotate(30 87.32 60)"><animate attributeName="opacity" from="1" to="0" dur="1s" begin="-0.9166666666666666s" repeatCount="indefinite"/></rect><rect x="47.5" y="42.5" width="5" height="15" rx="5" ry="5" fill="#662e06" transform="rotate(60 67.32 60)"><animate attributeName="opacity" from="1" to="0" dur="1s" begin="-0.8333333333333334s" repeatCount="indefinite"/></rect><rect x="47.5" y="42.5" width="5" height="15" rx="5" ry="5" fill="#662e06" transform="rotate(90 60 60)"><animate attributeName="opacity" from="1" to="0" dur="1s" begin="-0.75s" repeatCount="indefinite"/></rect><rect x="47.5" y="42.5" width="5" height="15" rx="5" ry="5" fill="#662e06" transform="rotate(120 55.774 60)"><animate attributeName="opacity" from="1" to="0" dur="1s" begin="-0.6666666666666666s" repeatCount="indefinite"/></rect><rect x="47.5" y="42.5" width="5" height="15" rx="5" ry="5" fill="#662e06" transform="rotate(150 52.68 60)"><animate attributeName="opacity" from="1" to="0" dur="1s" begin="-0.5833333333333334s" repeatCount="indefinite"/></rect><rect x="47.5" y="42.5" width="5" height="15" rx="5" ry="5" fill="#662e06" transform="rotate(180 50 60)"><animate attributeName="opacity" from="1" to="0" dur="1s" begin="-0.5s" repeatCount="indefinite"/></rect><rect x="47.5" y="42.5" width="5" height="15" rx="5" ry="5" fill="#662e06" transform="rotate(-150 47.32 60)"><animate attributeName="opacity" from="1" to="0" dur="1s" begin="-0.4166666666666667s" repeatCount="indefinite"/></rect><rect x="47.5" y="42.5" width="5" height="15" rx="5" ry="5" fill="#662e06" transform="rotate(-120 44.226 60)"><animate attributeName="opacity" from="1" to="0" dur="1s" begin="-0.3333333333333333s" repeatCount="indefinite"/></rect><rect x="47.5" y="42.5" width="5" height="15" rx="5" ry="5" fill="#662e06" transform="rotate(-90 40 60)"><animate attributeName="opacity" from="1" to="0" dur="1s" begin="-0.25s" repeatCount="indefinite"/></rect><rect x="47.5" y="42.5" width="5" height="15" rx="5" ry="5" fill="#662e06" transform="rotate(-60 32.68 60)"><animate attributeName="opacity" from="1" to="0" dur="1s" begin="-0.16666666666666666s" repeatCount="indefinite"/></rect><rect x="47.5" y="42.5" width="5" height="15" rx="5" ry="5" fill="#662e06" transform="rotate(-30 12.68 60)"><animate attributeName="opacity" from="1" to="0" dur="1s" begin="-0.08333333333333333s" repeatCount="indefinite"/></rect></svg>